<svg width="206" height="167" viewBox="0 0 206 167" fill="none" xmlns="http://www.w3.org/2000/svg">
<path d="M55.7606 6.0068C62.4873 8.79126 67.7792 14.2665 71.377 19.5863C45.4899 29.3438 25.7521 49.7371 19.5256 74.8547C16.1393 71.7107 12.2512 67.0405 9.26139 61.4638C6.05165 55.477 3.99204 48.666 4.46187 41.701C4.92515 34.8331 7.86735 27.4571 15.292 20.2201C24.2145 11.5231 32.0426 7.04018 38.7008 5.18265C45.2923 3.34374 50.9486 4.01489 55.7606 6.0068ZM70.0706 28.7191L28.2147 73.5408C34.2221 54.0043 49.6067 37.6634 70.0706 28.7191ZM82.9655 24.2629C90.2318 22.373 97.9447 21.3557 105.956 21.3557C113.472 21.3557 120.725 22.251 127.593 23.9222L126.749 25.8846L128.533 27.7948L155.283 56.4403L181.89 84.9326C183.168 86.5288 185.014 86.799 186.241 86.6869C186.384 88.3951 186.456 90.1188 186.456 91.8557C186.456 130.333 150.903 162.356 105.956 162.356C61.0088 162.356 25.456 130.333 25.456 91.8557C25.456 90.0951 25.5305 88.348 25.6768 86.6169C26.6284 86.4343 27.6916 85.9687 28.5216 84.9335L81.8795 27.7948L83.6632 25.8846L82.9655 24.2629ZM139.396 19.1652C142.492 14.9337 146.688 11.1312 151.958 9.25891C159.928 6.42704 171.79 7.54256 188.367 21.6142C196.312 28.3583 199.892 35.4551 201.007 42.1417C202.135 48.9054 200.798 55.6096 198.296 61.543C196.486 65.8314 194.112 69.6097 191.778 72.5661C184.845 48.1381 165.046 28.4599 139.396 19.1652ZM161.13 50.9802L139.379 27.6884C161.888 36.6984 178.682 54.5144 184.362 75.8588L161.13 50.9802Z" fill="#2774AE" stroke="#2774AE" stroke-width="8"/>
<path d="M36 59C31.6667 49.5 29.1 30.7 53.5 31.5" stroke="#F5F5F5" stroke-width="5"/>
<path d="M179.5 58.5247C183.833 49.0247 186.4 30.2247 162 31.0247" stroke="#F5F5F5" stroke-width="5"/>
<ellipse cx="76" cy="90" rx="8" ry="9" fill="white"/>
<ellipse cx="134" cy="90" rx="8" ry="9" fill="white"/>
<path d="M106.271 128.63L120 117.457C109.017 109.385 95.4237 114.094 90 117.457L106.271 128.63ZM106.271 128.63V138" stroke="#F5F5F5" stroke-width="8" stroke-linecap="round"/>
</svg>
