<svg xmlns="http://www.w3.org/2000/svg" fill="none" viewBox="85.71 128.41 261.29 105.59">
<path d="M175 226.874V199L347 205.707V234L175 226.874Z" fill="white"/>
<path d="M205.8 190.104C205.757 190.061 205.629 189.997 205.416 189.912C205.203 189.784 204.968 189.656 204.712 189.528C204.456 189.4 204.2 189.293 203.944 189.208C203.731 189.08 203.603 188.995 203.56 188.952C203.347 188.824 203.155 188.461 202.984 187.864C202.813 187.267 202.664 186.541 202.536 185.688C202.408 184.835 202.301 183.917 202.216 182.936C202.131 181.955 202.067 181.016 202.024 180.12C201.981 179.181 201.939 178.371 201.896 177.688C201.896 176.963 201.896 176.451 201.896 176.152C201.896 175.896 201.917 175.405 201.96 174.68C202.003 173.955 202.024 173.101 202.024 172.12C202.067 171.139 202.109 170.093 202.152 168.984C202.237 167.832 202.28 166.765 202.28 165.784C202.323 164.803 202.365 163.949 202.408 163.224C202.451 162.456 202.472 161.944 202.472 161.688C202.515 160.835 202.515 160.088 202.472 159.448C202.472 158.808 202.408 158.168 202.28 157.528C202.195 156.888 202.067 156.205 201.896 155.48C201.768 154.712 201.597 153.816 201.384 152.792C201.213 152.067 200.936 151.576 200.552 151.32C200.168 151.064 199.741 150.893 199.272 150.808C198.803 150.723 198.333 150.637 197.864 150.552C197.395 150.467 196.968 150.211 196.584 149.784C196.243 149.357 195.987 148.696 195.816 147.8C195.645 146.904 195.645 145.603 195.816 143.896C195.816 143.725 196.157 143.576 196.84 143.448C197.565 143.277 198.397 143.235 199.336 143.32C200.317 143.405 201.341 143.64 202.408 144.024C203.475 144.408 204.392 145.048 205.16 145.944C205.928 146.84 206.461 148.035 206.76 149.528C207.059 150.979 206.931 152.813 206.376 155.032C206.376 155.459 206.355 156.141 206.312 157.08C206.312 158.019 206.312 159.064 206.312 160.216C206.312 161.368 206.312 162.605 206.312 163.928C206.312 165.208 206.312 166.445 206.312 167.64C206.312 168.792 206.312 169.837 206.312 170.776C206.355 171.715 206.376 172.397 206.376 172.824C206.376 173.08 206.397 173.571 206.44 174.296C206.483 174.979 206.525 175.704 206.568 176.472C206.653 177.24 206.717 177.965 206.76 178.648C206.845 179.331 206.909 179.8 206.952 180.056C207.208 180.952 207.613 181.613 208.168 182.04C208.723 182.467 209.363 182.744 210.088 182.872C210.856 183 211.624 183.043 212.392 183C213.203 182.957 213.971 182.893 214.696 182.808C215.592 182.168 216.509 180.952 217.448 179.16C218.429 177.325 219.325 175.235 220.136 172.888C220.989 170.499 221.736 168.003 222.376 165.4C223.016 162.797 223.485 160.429 223.784 158.296C224.125 156.12 224.253 154.328 224.168 152.92C224.083 151.512 223.72 150.808 223.08 150.808H218.088C217.491 150.808 217.021 150.552 216.68 150.04C216.381 149.528 216.232 148.931 216.232 148.248C216.275 147.565 216.488 146.925 216.872 146.328C217.256 145.688 217.832 145.24 218.6 144.984C218.941 145.027 219.56 145.069 220.456 145.112C221.352 145.112 222.269 145.176 223.208 145.304C224.189 145.432 225.085 145.645 225.896 145.944C226.707 146.243 227.24 146.669 227.496 147.224C227.496 147.736 227.517 148.547 227.56 149.656C227.603 150.765 227.645 152.024 227.688 153.432C227.731 154.797 227.773 156.248 227.816 157.784C227.859 159.32 227.88 160.792 227.88 162.2C227.923 163.565 227.965 164.803 228.008 165.912C228.051 167.021 228.072 167.832 228.072 168.344C228.115 169.496 228.115 170.52 228.072 171.416C228.029 172.312 227.987 173.165 227.944 173.976C227.944 174.787 227.987 175.597 228.072 176.408C228.157 177.176 228.349 178.029 228.648 178.968C228.819 179.608 229.309 180.248 230.12 180.888C230.973 181.485 231.848 182.083 232.744 182.68C233.683 183.235 234.515 183.768 235.24 184.28C236.008 184.792 236.392 185.24 236.392 185.624V190.616L235.88 191.192C235.88 191.192 235.645 191.235 235.176 191.32C234.749 191.448 234.237 191.555 233.64 191.64C233.085 191.768 232.488 191.896 231.848 192.024C231.208 192.152 230.696 192.237 230.312 192.28C229.288 192.493 228.392 192.472 227.624 192.216C226.856 192.003 226.152 191.683 225.512 191.256C224.872 190.872 224.232 190.467 223.592 190.04C222.952 189.571 222.227 189.208 221.416 188.952C220.307 188.611 219.24 188.696 218.216 189.208C217.235 189.677 216.253 190.211 215.272 190.808C214.333 191.405 213.352 191.917 212.328 192.344C211.347 192.771 210.28 192.749 209.128 192.28C209.043 192.237 208.829 192.109 208.488 191.896C208.147 191.683 207.784 191.448 207.4 191.192C207.059 190.936 206.717 190.701 206.376 190.488C206.077 190.275 205.885 190.147 205.8 190.104ZM256.468 192.472C255.828 192.301 255.145 192.173 254.42 192.088C253.737 192.003 253.054 191.917 252.372 191.832C251.689 191.789 251.006 191.704 250.324 191.576C249.684 191.448 249.044 191.256 248.404 191C247.508 190.616 246.974 190.019 246.804 189.208C246.676 188.355 246.782 187.501 247.124 186.648C247.465 185.795 248.02 185.048 248.788 184.408C249.556 183.768 250.388 183.448 251.284 183.448H258.836L260.244 182.04C260.372 179.864 260.5 177.837 260.628 175.96C260.798 174.04 260.926 172.141 261.012 170.264C261.14 168.344 261.204 166.381 261.204 164.376C261.246 162.371 261.246 160.195 261.204 157.848C261.289 157.635 261.374 157.251 261.46 156.696C261.588 156.141 261.694 155.544 261.78 154.904C261.865 154.264 261.908 153.688 261.908 153.176C261.908 152.621 261.844 152.28 261.716 152.152L260.756 151.192H251.732C251.39 151.192 251.07 150.872 250.772 150.232C250.516 149.592 250.324 148.888 250.196 148.12C250.11 147.309 250.132 146.541 250.26 145.816C250.43 145.091 250.772 144.664 251.284 144.536C252.137 144.28 252.841 144.28 253.396 144.536C253.993 144.749 254.697 144.92 255.508 145.048C256.489 145.176 257.47 145.219 258.452 145.176C259.476 145.133 260.414 145.155 261.268 145.24C262.121 145.325 262.868 145.603 263.508 146.072C264.19 146.499 264.681 147.267 264.98 148.376C265.108 151.149 265.15 153.901 265.108 156.632C265.108 159.363 265.108 162.093 265.108 164.824C265.108 167.512 265.15 170.221 265.236 172.952C265.321 175.64 265.556 178.349 265.94 181.08C266.11 182.189 266.494 182.893 267.092 183.192C267.732 183.491 268.478 183.619 269.332 183.576C270.228 183.491 271.166 183.341 272.148 183.128C273.172 182.872 274.11 182.787 274.964 182.872C275.817 182.915 276.542 183.213 277.14 183.768C277.78 184.323 278.164 185.325 278.292 186.776C278.505 189.208 278.057 190.872 276.948 191.768C275.838 192.707 274.238 192.621 272.148 191.512C271.892 191.512 271.422 191.491 270.74 191.448C270.057 191.448 269.332 191.448 268.564 191.448C267.838 191.448 267.134 191.448 266.452 191.448C265.769 191.491 265.278 191.512 264.98 191.512C264.169 191.555 263.401 191.661 262.676 191.832C261.993 192.045 261.31 192.216 260.628 192.344C259.988 192.515 259.326 192.621 258.644 192.664C257.961 192.749 257.236 192.685 256.468 192.472ZM259.796 136.536C259.54 136.152 259.348 135.747 259.22 135.32C259.134 134.851 259.092 134.381 259.092 133.912C259.092 133.4 259.113 132.931 259.156 132.504C259.241 132.035 259.305 131.629 259.348 131.288C259.433 130.819 259.689 130.264 260.116 129.624C260.585 128.941 261.118 128.557 261.716 128.472C263.294 128.259 264.489 128.579 265.3 129.432C266.11 130.285 266.558 131.288 266.644 132.44C266.729 133.549 266.473 134.637 265.876 135.704C265.278 136.728 264.361 137.304 263.124 137.432C262.612 137.517 262.206 137.581 261.908 137.624C261.609 137.624 261.332 137.603 261.076 137.56C260.862 137.517 260.649 137.432 260.436 137.304C260.265 137.133 260.052 136.877 259.796 136.536ZM289.493 190.808C289.237 190.68 289.002 190.445 288.789 190.104C288.618 189.763 288.575 189.443 288.661 189.144C288.831 188.333 289.002 187.693 289.173 187.224C289.386 186.755 289.642 186.392 289.941 186.136C290.239 185.837 290.602 185.581 291.029 185.368C291.498 185.155 292.095 184.877 292.821 184.536C294.143 183.896 295.082 183 295.637 181.848C296.234 180.653 296.533 179.331 296.533 177.88C296.533 177.496 296.511 176.813 296.469 175.832C296.469 174.851 296.447 173.805 296.405 172.696C296.405 171.587 296.383 170.541 296.341 169.56C296.298 168.579 296.277 167.896 296.277 167.512V156.376L290.325 150.04C289.941 149.656 289.663 149.123 289.493 148.44C289.322 147.757 289.258 147.096 289.301 146.456C289.343 145.773 289.514 145.155 289.813 144.6C290.111 144.003 290.559 143.597 291.157 143.384C291.541 143.256 291.903 143.277 292.245 143.448C292.586 143.576 292.906 143.747 293.205 143.96C293.546 144.173 293.887 144.365 294.229 144.536C294.57 144.707 294.933 144.749 295.317 144.664C295.402 144.621 295.53 144.557 295.701 144.472C295.914 144.387 296.063 144.301 296.149 144.216C297.13 143.448 297.898 143.171 298.453 143.384C299.05 143.597 299.562 144.003 299.989 144.6C300.458 145.155 300.949 145.752 301.461 146.392C302.015 147.032 302.741 147.416 303.637 147.544C304.789 147.715 305.77 147.608 306.581 147.224C307.434 146.84 308.202 146.371 308.885 145.816C309.567 145.261 310.207 144.707 310.805 144.152C311.445 143.597 312.127 143.235 312.853 143.064C313.621 142.851 314.474 142.915 315.413 143.256C316.394 143.555 317.589 144.301 318.997 145.496C319.423 145.837 319.807 146.435 320.149 147.288C320.533 148.141 320.874 149.144 321.173 150.296C321.471 151.405 321.727 152.6 321.941 153.88C322.154 155.16 322.282 156.419 322.325 157.656C322.41 158.851 322.41 159.96 322.325 160.984C322.282 161.965 322.133 162.755 321.877 163.352V178.328C321.877 178.541 321.898 178.904 321.941 179.416C321.983 179.928 322.026 180.483 322.069 181.08C322.111 181.635 322.154 182.168 322.197 182.68C322.239 183.192 322.282 183.533 322.325 183.704C322.325 183.747 322.453 183.96 322.709 184.344C322.965 184.685 323.263 185.112 323.605 185.624C323.989 186.136 324.351 186.712 324.693 187.352C325.077 187.949 325.354 188.504 325.525 189.016C325.738 189.528 325.823 189.955 325.781 190.296C325.781 190.637 325.589 190.808 325.205 190.808H313.621C312.81 190.808 312.191 190.552 311.765 190.04C311.381 189.485 311.167 188.888 311.125 188.248C311.125 187.565 311.295 186.947 311.637 186.392C311.978 185.795 312.49 185.453 313.173 185.368C314.495 185.197 315.562 185.005 316.373 184.792C317.183 184.579 317.759 184.237 318.101 183.768C318.485 183.299 318.655 182.637 318.613 181.784C318.613 180.931 318.463 179.779 318.165 178.328C318.165 177.816 318.143 176.941 318.101 175.704C318.101 174.424 318.101 173.08 318.101 171.672C318.101 170.264 318.101 168.941 318.101 167.704C318.143 166.424 318.165 165.528 318.165 165.016C318.207 164.077 318.335 163.245 318.549 162.52C318.762 161.795 318.783 160.963 318.613 160.024C318.527 159.683 318.421 159.256 318.293 158.744C318.165 158.232 317.994 157.72 317.781 157.208C317.61 156.696 317.418 156.205 317.205 155.736C316.991 155.267 316.757 154.904 316.501 154.648C316.117 154.179 315.647 153.624 315.093 152.984C314.538 152.344 313.898 151.917 313.173 151.704C312.959 151.619 312.725 151.661 312.469 151.832C312.255 151.96 312.085 152.067 311.957 152.152C311.103 152.664 310.207 153.219 309.269 153.816C308.373 154.371 307.605 155.053 306.965 155.864C306.623 156.248 306.453 156.653 306.453 157.08C306.453 157.464 306.346 157.891 306.133 158.36C305.663 159.341 305.173 160.323 304.661 161.304C304.149 162.243 303.658 163.203 303.189 164.184C302.719 165.165 302.293 166.168 301.909 167.192C301.567 168.216 301.311 169.283 301.141 170.392C301.098 170.733 301.055 171.331 301.013 172.184C301.013 172.995 301.013 173.869 301.013 174.808C301.013 175.704 301.013 176.579 301.013 177.432C301.055 178.243 301.098 178.819 301.141 179.16C300.714 180.355 300.522 181.336 300.565 182.104C300.65 182.829 300.863 183.405 301.205 183.832C301.589 184.259 302.058 184.579 302.613 184.792C303.21 184.963 303.786 185.091 304.341 185.176C304.895 185.261 305.365 185.347 305.749 185.432C306.175 185.517 306.431 185.645 306.517 185.816C306.73 186.328 306.815 186.904 306.773 187.544C306.73 188.141 306.581 188.717 306.325 189.272C306.069 189.784 305.706 190.232 305.237 190.616C304.767 191 304.234 191.192 303.637 191.192H290.709C290.666 191.192 290.474 191.128 290.133 191C289.834 190.915 289.621 190.851 289.493 190.808Z" fill="white"/>
<path d="M104.876 216.68C103.924 216.091 103.131 215.637 102.496 215.32C101.861 214.957 101.227 214.753 100.592 214.708C100.003 214.663 99.3453 214.799 98.62 215.116C97.94 215.433 97.0787 215.955 96.036 216.68L94.948 215.728C94.9027 215.683 94.8573 215.229 94.812 214.368C94.7667 213.507 94.7213 212.396 94.676 211.036C94.6307 209.676 94.5627 208.135 94.472 206.412C94.4267 204.689 94.3587 202.967 94.268 201.244C94.2227 199.521 94.1547 197.867 94.064 196.28C94.0187 194.648 93.9733 193.265 93.928 192.132C93.928 191.361 93.9053 190.16 93.86 188.528C93.86 186.851 93.86 184.992 93.86 182.952C93.86 180.867 93.86 178.691 93.86 176.424C93.86 174.157 93.86 172.004 93.86 169.964C93.86 167.879 93.86 166.02 93.86 164.388C93.9053 162.756 93.928 161.555 93.928 160.784C93.6107 159.787 93.112 159.039 92.432 158.54C91.752 157.996 91.0267 157.543 90.256 157.18C89.4853 156.772 88.7147 156.364 87.944 155.956C87.2187 155.503 86.6293 154.823 86.176 153.916C85.632 152.783 85.564 151.808 85.972 150.992C86.38 150.176 87.06 149.519 88.012 149.02C88.964 148.476 90.052 148.113 91.276 147.932C92.5453 147.751 93.7467 147.751 94.88 147.932C96.0133 148.068 96.9653 148.408 97.736 148.952C98.552 149.451 98.96 150.131 98.96 150.992V172.616C98.96 173.251 99.1413 173.591 99.504 173.636C99.8667 173.636 100.275 173.523 100.728 173.296C101.181 173.024 101.612 172.707 102.02 172.344C102.473 171.981 102.768 171.732 102.904 171.596C103.72 170.553 104.536 169.737 105.352 169.148C106.168 168.513 107.007 167.992 107.868 167.584C108.775 167.131 109.704 166.7 110.656 166.292C111.608 165.884 112.605 165.34 113.648 164.66C115.461 165.839 117.003 167.629 118.272 170.032C119.541 172.435 120.516 175.2 121.196 178.328C121.876 181.456 122.284 184.765 122.42 188.256C122.556 191.747 122.42 195.169 122.012 198.524C121.604 201.833 120.924 204.916 119.972 207.772C119.065 210.628 117.887 212.963 116.436 214.776C115.031 216.589 113.353 217.723 111.404 218.176C109.455 218.629 107.279 218.131 104.876 216.68ZM100.864 203.896C101.045 204.123 101.408 204.531 101.952 205.12C102.541 205.709 103.131 206.321 103.72 206.956C104.355 207.591 104.944 208.18 105.488 208.724C106.077 209.268 106.508 209.631 106.78 209.812C107.415 210.084 107.959 210.22 108.412 210.22C108.865 210.175 109.273 210.061 109.636 209.88C109.999 209.653 110.339 209.381 110.656 209.064C110.973 208.701 111.313 208.316 111.676 207.908C113.081 206.276 114.169 204.735 114.94 203.284C115.711 201.833 116.255 200.428 116.572 199.068C116.889 197.708 117.025 196.348 116.98 194.988C116.98 193.628 116.889 192.2 116.708 190.704C116.527 189.208 116.3 187.621 116.028 185.944C115.801 184.267 115.643 182.408 115.552 180.368C115.144 179.28 114.532 178.396 113.716 177.716C112.945 177.036 112.039 176.56 110.996 176.288C109.999 175.971 108.956 175.835 107.868 175.88C106.825 175.925 105.828 176.129 104.876 176.492C104.196 177.444 103.471 178.623 102.7 180.028C101.975 181.433 101.295 182.975 100.66 184.652C100.025 186.284 99.4813 188.007 99.028 189.82C98.62 191.588 98.3707 193.333 98.28 195.056C98.2347 196.733 98.3933 198.343 98.756 199.884C99.164 201.425 99.8667 202.763 100.864 203.896ZM138.56 217.088C136.837 216.408 135.704 215.456 135.16 214.232C134.616 212.963 134.457 211.512 134.684 209.88C135.001 209.381 135.432 209.064 135.976 208.928C136.565 208.792 137.109 208.611 137.608 208.384C137.653 208.384 137.767 208.339 137.948 208.248C138.129 208.112 138.311 207.999 138.492 207.908C138.719 207.817 138.923 207.727 139.104 207.636C139.331 207.5 139.467 207.432 139.512 207.432C139.829 207.296 140.237 207.409 140.736 207.772C141.28 208.089 141.801 208.384 142.3 208.656C142.844 208.928 143.343 209.041 143.796 208.996C144.249 208.905 144.589 208.384 144.816 207.432C145.088 206.208 145.405 205.075 145.768 204.032C146.131 202.989 146.448 201.879 146.72 200.7C146.629 198.433 146.607 196.235 146.652 194.104C146.743 191.928 146.811 189.797 146.856 187.712C146.947 185.581 146.992 183.451 146.992 181.32C146.992 179.189 146.901 176.968 146.72 174.656C146.357 173.432 145.881 172.548 145.292 172.004C144.703 171.46 144.045 171.143 143.32 171.052C142.595 170.961 141.779 171.007 140.872 171.188C140.011 171.369 139.081 171.551 138.084 171.732C137.54 171.868 137.041 171.551 136.588 170.78C136.135 170.009 135.817 169.148 135.636 168.196C135.5 167.199 135.568 166.247 135.84 165.34C136.112 164.388 136.701 163.799 137.608 163.572C138.107 163.436 138.583 163.481 139.036 163.708C139.535 163.889 140.011 164.003 140.464 164.048H145.768C146.901 164.365 147.717 164.864 148.216 165.544C148.76 166.179 149.1 166.927 149.236 167.788C149.372 168.604 149.395 169.488 149.304 170.44C149.259 171.347 149.191 172.231 149.1 173.092C149.009 173.908 148.964 174.679 148.964 175.404C149.009 176.129 149.236 176.673 149.644 177.036C150.913 177.217 151.933 177.059 152.704 176.56C153.52 176.061 154.177 175.381 154.676 174.52C155.22 173.659 155.673 172.684 156.036 171.596C156.399 170.508 156.829 169.443 157.328 168.4C157.827 167.629 158.552 167.017 159.504 166.564C160.501 166.065 161.544 165.703 162.632 165.476C163.765 165.204 164.899 165.045 166.032 165C167.165 164.955 168.14 164.955 168.956 165C169.137 165.136 169.409 165.385 169.772 165.748C170.135 166.065 170.497 166.428 170.86 166.836C171.223 167.199 171.54 167.584 171.812 167.992C172.084 168.355 172.243 168.649 172.288 168.876C172.288 169.103 172.288 169.488 172.288 170.032C172.333 170.576 172.356 171.165 172.356 171.8C172.356 172.389 172.333 172.956 172.288 173.5C172.288 174.044 172.288 174.429 172.288 174.656C172.243 175.608 172.061 176.515 171.744 177.376C171.427 178.237 171.019 178.849 170.52 179.212C170.067 179.575 169.568 179.597 169.024 179.28C168.48 178.917 167.959 178.011 167.46 176.56C167.324 176.152 167.256 175.699 167.256 175.2C167.301 174.656 167.324 174.112 167.324 173.568C167.324 173.024 167.279 172.525 167.188 172.072C167.097 171.573 166.871 171.143 166.508 170.78C165.783 170.055 165.035 169.737 164.264 169.828C163.493 169.919 162.7 170.259 161.884 170.848C161.113 171.392 160.365 172.117 159.64 173.024C158.915 173.885 158.235 174.769 157.6 175.676C156.965 176.583 156.421 177.444 155.968 178.26C155.515 179.031 155.175 179.597 154.948 179.96C154.721 180.277 154.427 180.64 154.064 181.048C153.747 181.411 153.407 181.796 153.044 182.204C152.727 182.612 152.409 183.043 152.092 183.496C151.82 183.949 151.639 184.38 151.548 184.788C151.503 185.06 151.412 185.536 151.276 186.216C151.185 186.896 151.095 187.599 151.004 188.324C150.913 189.004 150.823 189.661 150.732 190.296C150.641 190.931 150.596 191.339 150.596 191.52C150.596 191.656 150.573 191.996 150.528 192.54C150.528 193.039 150.528 193.605 150.528 194.24C150.528 194.829 150.528 195.419 150.528 196.008C150.573 196.597 150.596 197.028 150.596 197.3C150.596 197.572 150.619 198.025 150.664 198.66C150.709 199.249 150.755 199.884 150.8 200.564C150.891 201.199 150.959 201.811 151.004 202.4C151.049 202.989 151.072 203.375 151.072 203.556C151.163 203.964 151.321 204.485 151.548 205.12C151.82 205.755 152.137 206.208 152.5 206.48C154.177 206.707 155.651 207.115 156.92 207.704C158.235 208.293 159.663 208.837 161.204 209.336C161.34 209.427 161.521 209.54 161.748 209.676C162.02 209.767 162.156 209.835 162.156 209.88V214.164C162.156 214.255 162.088 214.368 161.952 214.504C161.861 214.595 161.771 214.64 161.68 214.64C161.544 214.731 161.272 214.844 160.864 214.98C160.456 215.116 160.003 215.275 159.504 215.456C159.051 215.592 158.62 215.728 158.212 215.864C157.804 216 157.509 216.091 157.328 216.136C156.784 216.272 156.399 216.227 156.172 216C155.945 215.819 155.537 215.705 154.948 215.66C153.633 215.524 152.681 215.524 152.092 215.66C151.503 215.796 150.959 215.932 150.46 216.068C150.007 216.204 149.463 216.272 148.828 216.272C148.193 216.272 147.173 216.068 145.768 215.66C145.224 215.479 144.725 215.524 144.272 215.796C143.819 216.068 143.32 216.363 142.776 216.68C142.277 216.997 141.688 217.247 141.008 217.428C140.328 217.609 139.512 217.496 138.56 217.088Z" fill="white"/>
<path d="M195.409 220.247L190.834 220.044L191.437 206.457L196.012 206.661C197.185 206.713 198.145 206.882 198.893 207.169C199.641 207.442 200.209 207.875 200.597 208.466C200.998 209.044 201.262 209.723 201.387 210.503C201.513 211.269 201.549 212.265 201.495 213.491C201.44 214.716 201.322 215.732 201.139 216.538C200.957 217.33 200.646 218.037 200.204 218.658C199.777 219.267 199.17 219.7 198.385 219.959C197.6 220.204 196.608 220.3 195.409 220.247ZM198.546 214.981C198.591 214.556 198.631 213.971 198.664 213.225C198.698 212.465 198.698 211.858 198.665 211.403C198.631 210.948 198.523 210.529 198.34 210.147C198.157 209.765 197.868 209.499 197.475 209.348C197.095 209.184 196.572 209.088 195.906 209.058L194.088 208.977L193.697 217.769L195.515 217.85C196.515 217.894 197.252 217.673 197.727 217.187C198.132 216.791 198.405 216.056 198.546 214.981ZM207.571 220.787L208.174 207.201L210.932 207.323L210.328 220.91L207.571 220.787ZM225.905 221.381C224.48 221.625 223.201 221.722 222.069 221.671C220.936 221.621 220.037 221.441 219.37 221.131C218.703 220.821 218.19 220.351 217.831 219.721C217.472 219.092 217.237 218.36 217.128 217.528C217.018 216.696 216.991 215.654 217.046 214.401C217.163 211.777 217.61 209.969 218.388 208.976C219.18 207.97 220.569 207.511 222.553 207.599C223.699 207.65 225.016 207.889 226.506 208.315L226.328 210.509C225.018 210.251 223.924 210.102 223.045 210.063C222.179 210.025 221.554 210.117 221.17 210.34C220.787 210.55 220.488 210.977 220.273 211.622C220.071 212.267 219.935 213.375 219.865 214.947C219.795 216.519 219.926 217.619 220.259 218.248C220.605 218.864 221.324 219.196 222.417 219.244C223.522 219.294 224.699 219.252 225.946 219.121L225.905 221.381ZM231.405 210.675L231.513 208.237L241.503 208.681L241.395 211.119L237.799 210.959L237.304 222.108L234.546 221.985L235.042 210.836L231.405 210.675ZM246.642 222.523L247.245 208.936L250.002 209.058L249.399 222.645L246.642 222.523ZM259.314 219.882C259.683 220.593 260.407 220.972 261.486 221.02C262.565 221.068 263.313 220.754 263.73 220.078C264.161 219.39 264.413 218.227 264.485 216.588C264.559 214.937 264.412 213.729 264.046 212.965C263.679 212.202 262.963 211.796 261.897 211.749C260.832 211.701 260.083 212.042 259.65 212.77C259.217 213.498 258.964 214.688 258.891 216.34C258.818 217.978 258.959 219.159 259.314 219.882ZM265.81 221.932C264.921 223.014 263.444 223.509 261.379 223.417C259.315 223.326 257.881 222.701 257.078 221.545C256.289 220.375 255.948 218.592 256.054 216.194C256.161 213.796 256.66 212.037 257.55 210.915C258.455 209.781 259.939 209.259 262.004 209.351C264.069 209.443 265.494 210.093 266.282 211.303C267.083 212.5 267.43 214.297 267.323 216.694C267.217 219.092 266.712 220.838 265.81 221.932ZM273.385 223.71L273.988 210.124L278.644 210.33L281.424 221.665L281.623 221.674L282.12 210.485L284.878 210.607L284.274 224.194L279.739 223.992L276.839 212.653L276.639 212.644L276.142 223.833L273.385 223.71ZM290.096 224.452L293.756 211.001L298.991 211.234L301.444 224.956L298.687 224.834L298.257 222.352L293.502 222.141L292.853 224.575L290.096 224.452ZM295.793 213.374L294.128 219.767L297.844 219.932L296.752 213.417L295.793 213.374ZM310.21 220.781L310.007 225.337L307.25 225.214L307.853 211.628L313.128 211.862C316.325 212.004 317.857 213.567 317.725 216.55C317.646 218.322 316.922 219.598 315.553 220.378L317.26 225.659L314.243 225.525L312.867 220.899L310.21 220.781ZM312.872 218.537C313.524 218.566 314.02 218.388 314.357 218.002C314.694 217.617 314.878 217.098 314.907 216.445C314.936 215.793 314.786 215.265 314.456 214.864C314.14 214.463 313.663 214.248 313.024 214.22L310.506 214.108L310.314 218.423L312.872 218.537ZM328.662 226.165L325.905 226.043L326.149 220.548L322.312 212.27L325.369 212.405L327.626 217.931L330.364 212.627L333.421 212.763L328.906 220.671L328.662 226.165Z" fill="#2774AE"/>
</svg>